Patient4_TMGait_0pt7_02_right_09_EMG.mot
version=1
nRows=20
nColumns=33
inDegrees=no
endheader
time	1LAddLong	2LGlutMax	3LGlutMed	4LIliopsoas	5LSemiMemb	6LBicFemLong	7LRecFem	8LVastMed	9LVastLat	10LGasMed	11LTibAnt	12lTibPost	13LPeroneusLong	14LSol	15LExtDigLong	16LFlexDigLong	17RAddLong	18RGlutMax	19RGlutMed	20RIliopsoas	21RSemiMemb	22RBicFemLong	23RRecFem	24RVastMed	25RVastLat	26RGasMed	27RTibAnt	28RTibPost	29RPeroneusLong	30RSol	31RExtDigLong	32RFlexDigLong
10.145	-0.006866	0.55435	-0.014496	0.001526	0.001984	0.083313	0.010529	0.025787	-0.21057	0.003662	-0.061798	0.006866	-0.020447	-0.030823	0.018616	0.003204	-0.048218	-0.000305	0.10147	0.10574	0.007019	0.090179	-0.55039	-0.051117	0.001221	0.028687	-0.059204	-0.011139	-0.088196	0.21973	-0.004578	0.001068
10.146	-0.050049	0.56961	0.001068	0.004883	-0.036621	0.1358	-0.066833	0.042267	-0.15518	0.000153	-0.002594	0.006866	-0.035095	-0.027313	0.02594	-0.000153	-0.06485	-0.011749	0.23071	-0.032959	-0.014191	0.00412	-0.58731	-0.042725	-0.000305	0.016479	-0.095367	-0.01709	0.027008	-0.062256	-0.003967	-0.002594
10.147	-0.060577	0.63446	0.042419	0.006866	-0.121	0.080109	-0.07431	0.035248	-0.090179	-0.005646	0.056763	0.003967	-0.018311	-0.012665	0.023499	0.009766	-0.054169	0.059357	0.1564	-0.08316	-0.020599	-0.012512	-0.58411	-0.048676	0.001221	-0.023041	-0.0737	-0.036926	0.20599	-0.224	-0.001221	-0.000916
10.148	-0.080719	0.6807	0.10407	0.007172	-0.22964	0.23987	-0.079651	0.024414	-0.18173	-0.010071	0.045471	0.001984	0.038147	-0.010376	0.016937	0.001984	-0.03418	0.068512	0.097809	-0.090179	0.022736	-0.031586	-0.58243	-0.089874	-0.007477	-0.062714	-0.048218	-0.093536	0.30136	-0.24445	-0.003662	-0.009613
10.149	-0.036774	0.6221	0.14008	-0.003967	-0.16373	0.17532	-0.025787	0.025177	-0.31738	-0.003967	-0.005035	0.002594	0.075226	-0.015106	0.045776	-0.003357	-0.00473	-0.002289	0.86945	-0.092926	0.0354	-0.022583	-0.57541	-0.10864	-0.018616	-0.059662	-0.027924	-0.112	0.21484	-0.22629	-0.004272	-0.009155
10.15	-0.013428	0.63538	0.079956	0.007629	-0.13367	-0.015106	-0.082703	0.027466	-0.2832	-0.013123	-0.12177	0.004578	0.10986	0.026855	-0.004425	-0.001526	-0.007782	0.041656	0.13733	-0.097351	0.023804	-0.026245	-0.59662	-0.098724	-0.014038	-0.048065	0.019379	-0.001373	0.14481	0.069733	-0.003662	-0.013733
10.151	0.02655	0.57266	-0.041351	-0.004578	-0.050507	0.063782	-0.11246	0.0383	-0.16571	-0.012207	-0.21774	-0.00351	0.11444	0.061798	-0.084686	-0.009003	0.026855	-0.003662	0.20828	-0.12543	0.001221	-0.07843	-0.62866	-0.052032	0.00351	-0.075073	0.059357	0.12878	0.0914	0.1088	-0.003967	-0.013123
10.152	0.010681	0.54275	-0.13672	0.001221	0.07843	0.16159	-0.06012	0.036011	-0.14191	0.010834	-0.18768	-0.004425	0.007477	0.068817	0.000763	-0.009003	0.042419	0.009613	0.36835	-0.10605	0.01709	-0.11002	-0.63171	-0.035248	-0.018158	-0.036163	0.064697	0.078735	0.21774	-0.0737	-0.006409	-0.011444
10.153	0.016479	0.56137	-0.14038	0.006104	0.18341	0.061188	-0.086365	-0.010681	-0.18097	0.027161	0.021973	0.007172	-0.07019	0.069885	0.037689	-0.005493	0.07431	0.029144	0.10941	-0.046082	0.046234	-0.16388	-0.58029	-0.059509	0.00824	-0.031738	0.034332	0.0177	0.2771	0.18921	-0.003357	-0.012817
10.154	0.038147	0.58701	-0.001221	0.028992	0.2182	-0.49789	0.011139	-0.029144	-0.19119	-0.001221	0.25009	0.005493	-0.001068	0.07309	0.062408	-0.00412	0.10452	0.079651	0.28351	-0.034027	0.094604	-0.080872	-0.5806	-0.044556	0.003357	-0.025787	0.029602	-0.28473	0.20874	0.30975	-0.002747	-0.01297
10.155	0.045319	0.57587	0.11108	0.020599	0.25543	-0.7399	-0.004425	-0.056915	-0.15503	-0.05188	0.50323	0	0.071106	0.052795	-0.071411	-0.011749	0.071259	-0.016022	0.38223	0.061035	0.12283	0.007477	-0.54779	0.001526	0.000305	-0.020752	0.012665	0.072479	0.24048	0.36514	-0.002136	-0.008698
10.156	0.039673	0.5513	0.2063	0.006409	0.13916	-0.63843	-0.02182	-0.058594	-0.091705	-0.070496	0.40665	0.00351	0.11368	0.082092	0.1831	0.009155	0.024414	0.001373	0.73914	0.068817	0.12787	0.068207	-0.5484	-0.003052	0.003815	-0.014038	0.012207	0.16754	0.14618	0.078888	-0.00061	-0.0177
10.157	0.016327	0.54275	0.13275	-0.010223	0.023804	-0.34698	-0.066986	-0.029297	-0.025177	-0.082397	0.17242	0.000305	0.14084	0.13367	0.30334	0.010681	0.00946	-0.000458	0.52124	0.10437	0.12619	0.015106	-0.5629	-0.061188	0.000763	-0.018158	0.014496	0.035858	-0.034332	0.20615	0	-0.011902
10.158	-0.007782	0.47836	0.047455	-0.006256	-0.02243	-0.065155	-0.08255	-0.005341	-0.00946	-0.079346	-0.14786	0.003204	0.097961	0.13611	0.37857	0.014496	-0.002899	-0.011139	0.18845	0.17822	0.11658	-0.022278	-0.58136	-0.030518	-0.023804	-0.013733	0.00824	0.026398	-0.042114	0.18036	0.001678	-0.013275
10.159	-0.005341	0.47775	0.040741	0.005493	-0.033264	0.010071	-0.04715	0.011749	0.014343	-0.047302	-0.44205	0.011139	0.10941	0.14755	0.012512	0.023804	-0.015259	0.004425	0.20386	0.045776	0.095978	-0.059052	-0.59845	-0.050201	-0.007629	-0.017548	0.005341	0.01297	-0.072174	-0.21194	0.004272	-0.009918
10.16	-0.017853	0.49057	0.026093	-0.009613	-0.049744	0.14175	-0.055695	0.041199	0.072937	-0.031433	-0.17303	0.006714	0.15762	0.10284	-0.15167	0.028839	-0.024872	0.018921	0.63324	-0.052643	0.072327	-0.073547	-0.63568	-0.014954	-0.006409	-0.00946	0.002136	0.007782	-0.044403	-0.35507	-0.000305	-0.009918
10.161	-0.003204	0.53589	0.011749	-0.022583	-0.056458	0.11307	-0.12344	0.028687	0.096283	-0.031433	-0.19653	0.007629	0.13092	0.036469	-0.27679	0.018616	-0.003052	0.01358	0.19348	-0.16037	0.085754	-0.068665	-0.63583	-0.029449	-0.000458	-0.002594	-0.001984	-0.001678	0.001373	-0.057983	-0.000458	-0.003204
10.162	0.004578	0.47104	0.009308	0.009918	-0.03067	0.036621	-0.1474	0.001526	0.14358	0.007782	-0.23483	0.003815	0.018463	-0.10864	-0.15335	0.001984	0.010986	0.002594	0.027161	-0.21896	0.08316	-0.064545	-0.63385	0.034637	0.014343	0.00351	0.002136	-0.014648	-0.002136	0.11566	0	-0.006866
10.163	0.007477	0.46799	-0.062866	0.00824	-0.12512	0.11581	-0.11765	-0.023041	0.12878	0.009308	-0.11704	0.013428	0.022125	-0.21927	0.068665	0.021362	0.03418	0.08606	0.054321	-0.10895	0.097351	-0.013733	-0.58991	0.035706	0.022125	0.006256	0.005341	-0.00946	-0.001984	0.56122	-0.005341	-0.006866
10.164	-0.007629	0.36972	-0.074463	0.016327	-0.14221	0.10757	0.012207	-0.040741	0.023193	0.007782	-0.041809	0.003815	0.061493	-0.13718	-0.17593	0.013275	0.036011	-0.004578	0.22812	-0.029602	0.12543	0.088654	-0.58151	0.005035	0.028076	0.005493	0.002747	-0.015106	-0.033417	0.7019	0.001068	-0.005493
